<?xml version="1.0" encoding="utf-8"?>
<!-- Generator: Adobe Illustrator 16.0.0, SVG Export Plug-In . SVG Version: 6.00 Build 0)  -->
<!DOCTYPE svg PUBLIC "-//W3C//DTD SVG 1.1//EN" "http://www.w3.org/Graphics/SVG/1.1/DTD/svg11.dtd" [
	<!ENTITY ns_extend "http://ns.adobe.com/Extensibility/1.0/">
	<!ENTITY ns_ai "http://ns.adobe.com/AdobeIllustrator/10.0/">
	<!ENTITY ns_graphs "http://ns.adobe.com/Graphs/1.0/">
	<!ENTITY ns_vars "http://ns.adobe.com/Variables/1.0/">
	<!ENTITY ns_imrep "http://ns.adobe.com/ImageReplacement/1.0/">
	<!ENTITY ns_sfw "http://ns.adobe.com/SaveForWeb/1.0/">
	<!ENTITY ns_custom "http://ns.adobe.com/GenericCustomNamespace/1.0/">
	<!ENTITY ns_adobe_xpath "http://ns.adobe.com/XPath/1.0/">
]>
<svg version="1.1" id="Untitled-P_x25_E1gina_x25_201" xmlns:x="&ns_extend;" xmlns:i="&ns_ai;" xmlns:graph="&ns_graphs;"
	 xmlns="http://www.w3.org/2000/svg" xmlns:xlink="http://www.w3.org/1999/xlink" x="0px" y="0px" width="148px" height="123px"
	 viewBox="0 0 148 123" enable-background="new 0 0 148 123" xml:space="preserve">
<metadata>
	<sfw  xmlns="&ns_sfw;">
		<slices></slices>
		<sliceSourceBounds  width="148" height="123" x="521.5" y="359" bottomLeftOrigin="true"></sliceSourceBounds>
	</sfw>
</metadata>
<path fill="none" d="z"/>
<g id="Capa_x25_201">
	<path id="open-box" fill="#77BD1E" stroke="#FAFAF5" stroke-width="2" d="M98.309,73.21l-17.677-9.075l39.753-20.405l17.026,8.74
		L98.309,73.21L98.309,73.21z M116.583,92.961l-39.542,20.971v-44.83l19.896,10.211c0.439,0.225,0.914,0.338,1.396,0.338
		c0.492,0,0.985-0.119,1.432-0.355l16.817-8.92V92.961L116.583,92.961z M74,60.731L34.247,40.325L74,19.919l39.753,20.406L74,60.731
		L74,60.731z M70.958,113.932L31.417,92.961V70.375l16.818,8.92c0.446,0.236,0.938,0.355,1.432,0.355
		c0.481,0,0.957-0.113,1.396-0.338l19.896-10.211V113.932L70.958,113.932z M10.588,52.47l17.026-8.74l39.754,20.405L49.69,73.21
		L10.588,52.47L10.588,52.47z M10.588,28.181L49.69,7.44l17.678,9.074L27.614,36.92L10.588,28.181L10.588,28.181z M98.309,7.44
		l39.103,20.74l-17.026,8.74L80.632,16.515L98.309,7.44L98.309,7.44z M145.354,49.737l-18.336-9.412l18.336-9.412
		c1.004-0.517,1.641-1.542,1.646-2.667s-0.612-2.16-1.611-2.691l-45.624-24.2c-0.886-0.467-1.937-0.473-2.827-0.018L74,13.11
		L51.063,1.337c-0.891-0.456-1.954-0.449-2.828,0.018L2.61,25.555C1.612,26.086,0.994,27.121,1,28.246s0.642,2.15,1.646,2.667
		l18.336,9.412L2.646,49.737C1.642,50.254,1.006,51.279,1,52.404c-0.006,1.125,0.612,2.16,1.61,2.691l22.723,12.053v27.627
		c0,1.116,0.618,2.145,1.61,2.67l45.625,24.2C73.014,121.882,73.507,122,74,122c0.493,0,0.986-0.118,1.432-0.354l45.625-24.2
		c0.992-0.525,1.609-1.554,1.609-2.67V67.148l22.725-12.053c0.998-0.532,1.615-1.566,1.609-2.691
		C146.994,51.279,146.357,50.254,145.354,49.737L145.354,49.737z"/>
</g>
<path fill="none" d="z"/>
</svg>
